# xmcd CD database file
#
# Track frame offsets:
#	150
#	21675
#	47442
#	71012
#	99160
#	124715
#	159275
#	183665
#	204290
#	227390
#	254445
#
# Disc length: 3649 seconds
#
# Revision: 0
# Processed by: cddbd v1.5.2PL0 Copyright (c) Steve Scherf et al.
# Submitted via: CDex 1.51
#
DISCID=8a0e3f0b
DTITLE=Alan Barnes - Shine
DYEAR=1997
DGENRE=Jazz
TTITLE0=Shine (take 1)
TTITLE1=Drop Me Off In Harlem
TTITLE2=Angel Face
TTITLE3=Stella By Starlight
TTITLE4=Just Squeeze Me
TTITLE5=Pee Wee's Blues
TTITLE6=I Want A Little Girl
TTITLE7=Purple Gazelle
TTITLE8=Everytime We Say Goodbye
TTITLE9=Don't Get Around Much Anymore
TTITLE10=Shine (take 2)
EXTD=YEAR: 1997
EXTT0=
EXTT1=
EXTT2=
EXTT3=
EXTT4=
EXTT5=
EXTT6=
EXTT7=
EXTT8=
EXTT9=
EXTT10=
PLAYORDER=
